<?xml version="1.0" encoding="UTF-8"?>
<svg id="Layer_2" data-name="Layer 2" xmlns="http://www.w3.org/2000/svg" viewBox="0 0 5000 2273.17">
  <g id="Layer_1-2" data-name="Layer 1">
    <g>
      <path d="m0,2272.13c316.17-172.7,724.23-596.18,1141.84-1029.62,150.07-155.75,301.36-312.79,450.09-459.93C2183.07,197.72,2733.32-230.66,3003.03,199.42c1036.24,1652.43,1643.74,2064.53,1996.97,2017.74v.97c-353.54,46.69-961.32-365.62-1997.59-2018.1-269.29-429.41-819.19-1.21-1409.99,583.32-148.69,147.12-300,304.16-450.07,459.92C724.59,1676.87,316.39,2100.5,0,2273.17v-1.05Z"/>
      <path d="m0,2208.39c311.6-166.12,710.82-568.92,1120.05-981.85C1862.93,476.93,2638.77-305.93,2984.07,233.1h0c1053.77,1671.71,1664.25,2024.65,2015.93,1932.08v1.23c-351.96,92.43-962.71-260.86-2016.55-1932.68h0c-344.8-538.25-1120.33,244.28-1862.91,993.58C711.17,1640.39,311.81,2043.33,0,2209.43v-1.04Z"/>
      <path d="m0,2144.81c307.01-159.48,697.46-541.97,1098.39-934.77C1837.5,485.89,2612.04-272.97,2965.11,266.78h0c1070.77,1689.58,1684.46,1978.98,2034.89,1841.35v1.2c-350.71,137.5-964.68-152.26-2035.51-1841.93-352.58-538.99-1126.81,219.56-1865.62,943.41C697.81,1603.76,307.21,1986.39,0,2145.85v-1.04Z"/>
      <path d="m0,2081.54c302.37-152.78,684.2-515.5,1076.84-888.52C1812.12,494.49,2585.27-240.01,2946.15,300.46h0c1087.56,1706.5,1704.37,1926.56,2053.85,1744.78v1.21c-349.77,181.66-966.86-38.82-2054.46-1745.36h0c-360.39-539.75-1133.24,194.47-1868.22,892.71C684.53,1566.97,302.57,1929.81,0,2082.58v-1.04Z"/>
      <path d="m2926.59,334.79h0M0,2018.44c297.7-146.02,670.98-489.33,1055.42-842.95C1786.81,502.75,2558.46-207.04,2927.19,334.14h0c1103.69,1721.76,1723.86,1867.52,2072.8,1643.47v1.12c-349.29,223.91-969.78,77.71-2073.41-1643.94-368.25-540.48-1139.6,169.03-1870.7,841.51C671.31,1530.04,297.89,1873.47,0,2019.49v-1.04Z"/>
      <path d="m0,1955.61c293-139.22,657.83-463.57,1034.1-798.14C1761.55,510.66,2531.61-174.06,2908.23,367.82h0c1119.13,1735.26,1742.84,1801.26,2091.76,1537.43v1.17c-349.28,263.69-973.33,197.16-2092.37-1537.95-376.15-541.2-1145.91,143.25-1873.08,789.82C658.15,1492.97,293.19,1817.44,0,1956.65v-1.04Z"/>
      <path d="m0,1893.09c288.26-132.38,644.75-438.26,1012.89-754.13C1736.34,518.22,2504.73-141.08,2889.27,401.5v.02c1133.82,1746.91,1761.29,1727.59,2110.73,1427.21v1.2c-349.8,300.26-977.61,319-2111.32-1427.76h0c-384.08-541.93-1152.17,117.11-1875.35,737.62C645.06,1455.77,288.44,1761.75,0,1894.12v-1.04Z"/>
      <path d="m0,1830.73c283.49-125.5,631.7-413.21,991.77-710.78C1711.18,525.44,2477.79-108.1,2870.31,435.18v.02c1147.42,1756.22,1779.09,1646.6,2129.69,1313.83v1.25c-350.97,332.68-982.98,441.6-2130.27-1314.43-392.06-542.65-1158.39,90.64-1877.52,684.93C632,1418.45,283.66,1706.27,0,1831.76v-1.03Z"/>
      <path d="m0,1768.72c278.67-118.59,618.71-388.65,970.75-668.26C1686.06,532.31,2450.82-75.12,2851.35,468.86l.02.02c1159.88,1763.08,1796.18,1558.15,2148.63,1197.86v1.28c-352.82,360.25-989.47,564.4-2149.24-1198.51h0c-400.09-543.34-1164.56,63.85-1879.59,631.78C619.01,1381.01,278.84,1651.17,0,1769.75v-1.03Z"/>
      <path d="m0,1706.95c273.82-111.66,605.76-364.43,949.81-626.46C1660.97,538.85,2423.8-42.13,2832.39,502.54l.02.02c1154.7,1742.56,1794.63,1470.49,2152.65,1096.19,5.04-5.27,10.01-10.55,14.94-15.85v1.31c-4.76,5.12-9.57,10.22-14.44,15.31-358.28,374.57-998.61,646.91-2153.75-1096.29-408.16-544.09-1170.7,36.67-1881.6,578.11C606.04,1343.46,273.99,1596.33,0,1707.98v-1.03Z"/>
      <path d="m0,1645.48c268.94-104.71,592.84-340.61,928.94-585.44C1635.92,545.04,2396.73-9.16,2813.43,536.22l.02.02c1180.57,1768.15,1828.07,1359.51,2186.55,961.91v1.34c-358.8,397.69-1006.63,805.48-2187.15-962.6-416.28-544.79-1176.79,9.2-1883.52,524C593.12,1305.81,269.09,1541.8,0,1646.5v-1.03Z"/>
      <path d="m0,1584.33c264-97.75,579.96-317.23,908.14-545.22,702.76-488.22,1461.47-1015.3,1886.33-469.21l.02.02c1188.58,1766.06,1842.81,1249.77,2205.51,843.63v1.33c-363.01,406.3-1017.56,921.7-2206.11-844.3-424.44-545.53-1182.87-18.64-1885.38,469.4C580.23,1268.05,264.16,1487.61,0,1585.36v-1.02Z"/>
      <path d="m0,1523.45c259.03-90.78,567.1-294.19,887.39-505.72,698.51-461.31,1455.05-960.95,1888.12-414.14l.02.03c1194.89,1760.7,1856.72,1133.52,2224.47,726.27v1.32c-368.06,407.5-1030.21,1033.69-2225.06-726.93-432.67-546.27-1188.93-46.81-1887.18,414.33C567.35,1230.21,259.18,1433.69,0,1524.47v-1.02Z"/>
      <path d="m0,1462.95c254.01-83.83,554.26-271.65,866.69-467.09,694.21-434.27,1448.52-906.13,1889.86-358.6l.02.03c1190.88,1739.48,1860.35,1021.49,2235.53,619.12l7.9-8.47v1.3l-7.39,7.92c-375.39,402.6-1045.24,1121-2236.63-619.21-440.94-547.02-1194.98-75.33-1888.94,358.79C554.51,1192.26,254.15,1380.15,0,1463.97v-1.02Z"/>
      <path d="m0,1402.7c248.95-76.87,541.42-249.42,846.03-429.17,689.89-407.11,1441.89-850.87,1891.56-302.58l.02.03c1143.56,1655.03,1814.82,960.28,2204.91,556.55,19.88-20.58,39.03-40.39,57.48-59.11v1.28c-18.29,18.57-37.27,38.21-56.98,58.6-390.3,403.96-1061.94,1099.09-2205.99-556.64-449.28-547.79-1201.02-104.18-1890.67,302.78C541.65,1154.24,249.09,1326.85,0,1403.72v-1.01Z"/>
      <path d="m0,1342.87c243.84-69.95,528.6-227.71,825.38-392.14,685.54-379.81,1435.18-795.15,1893.25-246.1h0s.02.03.02.03c1098.05,1573.79,1769.6,899.08,2173.31,493.48,38.39-38.57,74.35-74.7,108.04-106.24v1.23c-33.54,31.43-69.34,67.4-107.54,105.78-403.93,405.82-1075.85,1080.89-2174.38-493.57-457.68-548.58-1207.07-133.39-1892.38,246.3C528.82,1116.12,243.96,1273.93,0,1343.88v-1.01Z"/>
      <path d="m0,1283.33c238.67-63.05,515.75-206.36,804.75-355.88,681.16-352.4,1428.4-738.98,1894.93-189.15h0s.02.03.02.03c1054.18,1495.49,1724.67,838.09,2140.78,430.11,57.99-56.86,111.04-108.87,159.52-149.55v1.19c-48.33,40.61-101.22,92.46-159.03,149.14-416.33,408.2-1087.18,1065.94-2141.84-430.21-466.15-549.39-1213.14-162.94-1894.08,189.35C515.96,1077.93,238.79,1221.29,0,1284.34v-1.01Z"/>
      <path d="m0,1224.2c233.44-56.19,502.9-185.52,784.1-320.5,676.77-324.86,1421.55-682.37,1896.61-131.71h0s.02.03.02.03c1011.81,1419.9,1680.02,777.48,2107.37,366.63,78.55-75.51,148.96-143.2,211.89-188.86v1.14c-62.78,45.62-133.05,113.17-211.41,188.51-427.57,411.07-1096.13,1053.82-2108.42-366.72-474.7-550.23-1219.24-192.84-1895.79,131.92C503.09,1039.66,233.55,1169.02,0,1225.21v-1.01Z"/>
      <path d="m0,1165.42c228.16-49.38,490-165.09,763.43-285.95,672.36-297.2,1414.65-625.31,1898.32-73.8h0s.02.03.02.03c970.82,1346.83,1635.63,717.38,2073.1,303.18,99.9-94.59,187.95-177.95,265.12-224.03v1.1c-77,46.08-164.92,129.31-264.65,223.73-437.7,414.41-1102.84,1044.18-2074.14-303.28-483.32-551.11-1225.38-223.1-1897.53,74.01C490.18,1001.3,228.26,1117.05,0,1166.43v-1Z"/>
      <path d="m0,1107.06c222.8-42.62,477.07-145.17,742.7-252.32,667.94-269.42,1407.71-567.8,1900.09-15.4h.01s.02.04.02.04c931.11,1276.1,1591.47,657.93,2038,239.93,121.93-114.14,227.93-213.35,319.18-255.07v1.06c-91.08,41.73-196.94,140.82-318.71,254.81-446.75,418.21-1107.45,1036.69-2039.03-240.04-492.04-552.01-1231.57-253.72-1899.31,15.62C477.23,962.87,222.9,1065.44,0,1108.07v-1Z"/>
      <path d="m0,1049.08c217.37-35.94,464.06-125.71,721.91-219.56,663.52-241.51,1400.75-509.85,1901.93,43.5h.01s.02.03.02.03c892.58,1207.57,1547.54,599.22,2002.08,177.02,144.52-134.23,268.79-249.65,374.06-282v1.02c-105.07,32.37-229.22,147.68-373.59,281.78-454.77,422.41-1110.06,1031.07-2003.11-177.11-500.86-552.98-1237.85-284.73-1901.18-43.29C464.22,924.35,217.46,1014.14,0,1050.08v-1Z"/>
      <path d="m0,991.56c211.86-29.34,450.99-106.79,701-187.77,659.11-213.48,1393.78-451.44,1903.87,102.92l.02.02h.01c855.16,1141.12,1503.82,541.35,1965.37,114.58,167.56-154.93,310.46-287.05,429.73-304.94v1c-119.04,17.91-261.84,149.93-429.26,304.74-461.78,426.98-1110.76,1027.05-1966.4-114.67-509.78-554-1244.23-316.11-1903.14-102.69C451.12,885.75,211.93,963.22,0,992.56v-1Z"/>
      <path d="m0,934.43c206.25-22.84,437.8-88.36,679.96-156.9,654.7-185.33,1386.83-392.57,1905.96,162.87l.02.02v.02c818.79,1076.61,1460.3,484.38,1927.87,52.71,183.62-169.51,340.43-314.28,470.72-323.63,5.21-.37,10.35-.45,15.47-.39v.99c-5.11-.07-10.24.01-15.43.38-130.05,9.33-286.78,154.02-470.3,323.44-467.81,431.88-1109.63,1024.4-1928.89-52.81-518.83-555.1-1250.74-347.92-1905.26-162.64C437.92,847.05,206.32,912.59,0,935.42v-1Z"/>
      <path d="m0,877.79c200.54-16.45,424.49-70.53,658.73-127.09,650.32-157.04,1379.92-333.23,1908.23,223.38h.01s.02.04.02.04c783.37,1013.97,1416.92,428.42,1889.57-8.42,192.83-178.22,358.89-331.7,497.52-341.86,15.66-1.15,30.97-.43,45.93,2.25v1.01c-14.94-2.69-30.23-3.42-45.88-2.27-138.39,10.14-304.37,163.54-497.09,341.67-472.88,437.06-1106.75,1022.9-1890.58,8.34-528.03-556.3-1257.42-380.16-1907.56-223.16-234.28,56.58-458.28,110.66-658.87,127.11v-.99Z"/>
      <path d="m0,821.58c194.7-10.19,411-53.24,637.26-98.3,645.98-128.63,1373.08-273.41,1910.74,284.47h0s.02.04.02.04c748.88,953.12,1373.71,373.53,1850.49-68.72,202.16-187.52,377.71-350.36,524.91-361.35,26.45-1.98,51.97,1.04,76.57,9.61v1.03c-24.59-8.59-50.09-11.62-76.53-9.65-146.97,10.97-322.44,173.73-524.49,361.15-477.01,442.47-1102.15,1022.34-1851.5,68.65-537.38-557.59-1264.29-412.85-1910.1-284.25-226.3,45.06-442.62,88.12-637.38,98.31v-.99Z"/>
      <path d="m0,765.88c188.73-4.09,397.31-36.6,615.49-70.63,641.68-100.07,1366.35-213.09,1913.54,346.19l.02.02v.02c715.27,893.98,1330.66,319.79,1810.64-128.06,211.6-197.44,396.9-370.33,552.94-382.19,37.5-2.85,73.3,3.63,107.37,21.27v1.07c-34.05-17.69-69.84-24.19-107.32-21.35-155.8,11.84-341.02,184.65-552.52,382-480.21,448.07-1095.9,1022.54-1811.64,127.98-546.92-559-1271.42-446.01-1912.93-345.96-218.21,34.03-426.81,66.55-615.59,70.64v-.99Z"/>
      <path d="m0,710.69c182.59,1.84,383.36-20.64,593.34-44.15,637.44-71.37,1359.79-152.25,1916.73,408.58h.01s.01.03.01.03c682.47,836.49,1287.7,267.26,1769.96-186.3,221.18-208.02,416.5-391.72,581.65-404.48,48.78-3.77,94.91,7.4,138.29,37.23v1.13c-43.36-29.92-89.48-41.13-138.24-37.37-164.91,12.74-360.14,196.36-581.22,404.28-482.49,453.79-1088.02,1023.29-1770.97,186.24-556.69-560.57-1278.87-479.71-1916.16-408.36-210,23.51-410.79,45.99-593.41,44.15v-.99Z"/>
      <path d="m0,656c176.26,7.56,369.08-5.37,570.71-18.91,633.29-42.51,1353.44-90.86,1920.4,471.71l.02.02h0c650.46,780.59,1244.87,216.01,1728.48-243.34,230.88-219.29,436.52-414.62,611.06-428.3,60.24-4.72,116.75,12.22,169.31,57.22v1.19c-52.54-45.14-109.04-62.14-169.27-57.42-174.3,13.67-379.85,208.91-610.63,428.1-483.85,459.58-1078.55,1024.44-1729.49,243.28-566.72-562.32-1286.7-513.99-1919.85-471.48-201.64,13.54-394.47,26.47-570.75,18.91v-.99Z"/>
      <path d="m0,601.86c169.69,13.03,354.39,9.08,547.46,4.95,629.26-13.48,1347.39-28.87,1924.69,535.67l.02.02h0c619.22,726.25,1202.12,166.11,1686.18-299.04,240.7-231.3,456.97-439.12,641.22-453.77,71.84-5.71,138.8,17.96,200.42,81.03v1.23c-61.6-63.24-128.54-86.98-200.37-81.27-184.01,14.63-400.19,222.37-640.79,453.57-484.29,465.38-1067.49,1025.79-1687.19,299-577.07-564.32-1295.05-548.93-1924.18-535.45-193.07,4.14-377.77,8.08-547.48-4.94v-.99Z"/>
      <path d="m0,548.3c162.84,18.22,339.18,22.66,523.43,27.29,625.38,15.74,1341.74,33.76,1929.77,600.58l.03.03c588.69,673.4,1159.46,117.62,1643.04-353.27,250.65-244.07,477.88-465.34,672.17-480.99,83.57-6.73,161,24.68,231.58,108.56v1.31c-70.55-84.1-147.97-115.61-231.53-108.88-194.04,15.63-421.19,236.82-671.73,480.79-483.82,471.12-1054.86,1027.18-1644.04,353.24-587.82-566.61-1304.03-584.63-1929.29-600.36-184.23-4.64-360.57-9.08-523.41-27.29v-1Z"/>
      <path d="m0,495.3c155.62,23.05,323.3,35.24,498.37,47.96,621.7,45.17,1336.62,97.12,1935.86,666.58l.02.03c558.87,622.05,1116.85,70.63,1599.02-405.88,260.71-257.64,499.26-493.4,703.94-510.09,95.37-7.78,183.36,32.13,262.78,139.41v1.4c-79.4-107.57-167.36-147.6-262.73-139.82-204.43,16.67-442.89,252.34-703.5,509.88-482.41,476.74-1040.66,1028.43-1600.01,405.87h0C1834.7,641.36,1119.92,589.42,498.33,544.26c-175.05-12.72-342.72-24.91-498.33-47.95v-1Z"/>
      <path d="m0,442.92c147.94,27.47,306.54,46.68,471.98,66.71,618.29,74.87,1332.2,161.31,1943.3,733.9l.02.02c529.72,572.16,1074.29,25.21,1554.12-456.72,270.88-272.06,521.14-523.42,736.57-541.19,107.25-8.85,205.83,40.24,294.01,173.39v1.46c-88.15-133.5-186.72-182.71-293.96-173.86-215.19,17.76-465.35,269.02-736.13,540.98-480.07,482.17-1024.9,1029.38-1555.11,456.72h0C1803.89,671.9,1090.09,585.47,471.91,510.62c-165.42-20.03-323.98-39.24-471.91-66.7v-1Z"/>
      <path d="m0,391.16c139.66,31.35,288.6,56.75,443.8,83.2,615.23,104.87,1328.76,226.49,1952.52,802.85l.02.02c501.22,523.71,1031.75-18.56,1508.29-505.64,281.15-287.37,543.52-555.54,770.12-574.44,119.17-9.94,228.41,49.2,325.25,210.58v1.56c-96.82-161.79-206.04-221.09-325.2-211.15-226.35,18.88-488.62,286.95-769.67,574.22-476.77,487.32-1007.56,1029.85-1509.28,505.65h0C1772.25,701.8,1058.83,580.2,443.69,475.35c-155.16-26.45-304.06-51.83-443.69-83.17v-1.01Z"/>
      <path d="m0,340.07c130.57,34.55,269.06,65.13,413.17,96.94,612.66,135.25,1326.67,292.88,1964.19,873.88l.02.02c473.35,476.69,989.22-60.58,1461.5-552.45,291.52-303.61,566.43-589.93,804.62-610,131.12-11.05,251.07,58.72,356.5,250.53v1.63c-105.4-192.28-225.34-262.22-356.45-251.17-237.94,20.05-512.76,306.27-804.17,609.78-472.51,492.11-988.63,1029.65-1462.48,552.47h0C1739.52,730.83,1025.61,573.23,413.03,437.99c-144.05-31.8-282.5-62.37-413.03-96.91v-1.02Z"/>
      <path d="m0,289.65c120.35,36.85,247.26,71.38,379.08,107.23,610.77,166.13,1326.49,360.82,1979.32,947.69h.01c446.1,431.12,946.69-100.75,1413.7-596.95,301.95-320.83,589.88-626.75,840.13-648.05,143.08-12.17,273.81,68.7,387.75,293v1.71c-113.91-224.84-244.62-305.89-387.7-293.71-249.99,21.27-537.82,327.09-839.67,647.81-467.25,496.45-968.08,1028.58-1414.69,597h0C1705.24,758.63,989.61,563.97,378.91,397.85,247.16,362.02,120.3,327.51,0,290.67v-1.02Z"/>
      <path d="m0,239.95c108.46,37.88,222.14,74.73,339.91,112.9,609.88,197.69,1329.15,430.85,1999.53,1025.4h0c419.46,386.97,904.12-138.99,1364.86-638.97,312.45-339.07,613.91-666.2,876.71-688.77,155.06-13.31,296.61,79.5,418.99,338.29v1.83c-122.34-259.4-263.88-352.44-418.94-339.13-262.54,22.54-563.89,349.57-876.24,688.53-460.97,500.23-945.88,1026.45-1365.84,639.03C1668.71,784.61,949.52,551.48,339.71,353.81,222.02,315.66,108.41,278.83,0,240.98v-1.03Z"/>
      <path d="m0,190.98c94.02,37.02,191.87,73.92,292.88,112.01,610.49,230.22,1336.19,503.9,2027.6,1108.94,393.4,344.25,861.51-175.16,1314.9-678.25C3958.37,375.3,4273.9,25.19,4549.79,1.3c167.02-14.47,319.47,90.79,450.21,385.92v1.91C4869.3,93.32,4716.87-12.18,4549.84,2.29c-275.63,23.87-591.05,373.87-913.94,732.14-453.62,503.34-921.97,1023.02-1315.88,678.32C1628.72,807.8,903.08,534.15,292.65,303.95,191.73,265.89,93.95,229.01,0,192.03v-1.04Z"/>
    </g>
  </g>
</svg>