<?xml version="1.0" encoding="UTF-8"?>
<svg id="Layer_1" data-name="Layer 1" xmlns="http://www.w3.org/2000/svg" viewBox="0 0 512 512">
  <defs>
    <style>
      .cls-1 {
        fill: #fff;
      }
    </style>
  </defs>
  <path class="cls-1" d="m500.23,351.38c-1.72-15.75-3.04-31.54-3.15-47.38-.18-23.97.31-47.93.9-71.89.42-17.03.08-34.07.57-51.1.51-17.62.18-35.25.58-52.88.56-25.05.5-50.12.72-75.17.08-8.71-.23-17.46.44-26.12.62-8.01-4.75-15.13-12.8-15.46-9.99-.41-19.98-.86-29.97-1.13-17.32-.47-34.65-.89-51.97-1.19-15.55-.27-31.1-.41-46.64-.5-34.47-.2-68.95-.55-103.42.24-19.01.43-38.04-.09-57.05.61-12.17.45-24.36.15-36.54.53-21.58.67-43.17.86-64.75,1.3-17.52.35-35.04.8-52.57,1.12-5.04.09-10.06.28-15.12-.34-9.54-1.17-16.61,6.24-15.48,15.89,1,8.58.97,17.22.78,25.79-.25,11.38,0,22.77-.75,34.14-.75,11.16-.89,22.35-1.44,33.52-1.07,21.65-2.54,43.28-3.25,64.94-.46,14.15-1.1,28.31-.69,42.48.1,8.22.13,16.43.28,24.65.38,21.78.96,43.56,1.88,65.32.86,20.28,1.65,40.55,2.46,60.83.59,15.04,1.18,30.07,1.73,45.11.68,18.8,1.28,37.6,2.01,56.4.12,3.14.07,6.36,1.16,9.39,2.49,6.9,9.94,10.76,18.57,9.59,7.57-1.02,15.2-1.31,22.81-1.35,15.05-.09,30.07,1.06,45.06,2.28,20.82,1.7,41.61,3.54,62.55,2.34,12.75-.73,25.45-2,38.15-3.31,14.28-1.48,28.56-2.84,42.92-3.14,15.67-.32,31.23,1.55,46.8,2.94,21.77,1.95,43.54,1.35,65.3.29,17.89-.88,35.74-2.53,53.64-3.26,17.02-.69,34.08-.43,51.09.61,6.1.37,12.23.38,18.33,1.5,8.18,1.5,14.7-3.85,15.39-12.16.58-7,.86-14.03,1.27-21.04,1.13-19.07,2.46-38.13,3.32-57.21.86-19.14-1.01-38.18-3.08-57.18Zm-23.68,66.85c-1.01,15.6-1.73,31.23-2.53,46.84-.33,6.55-.28,6.72-6.83,6.4-19.6-.94-39.22-1.07-58.82-.46-14.14.44-28.24,1.74-42.37,2.59-18.98,1.14-37.95,2.16-56.98,1.04-22.31-1.31-44.51-4.72-66.96-3.74-13.45.59-26.85,1.79-40.23,3.27-20.88,2.31-41.8,4.2-62.82,3.09-17.58-.92-35.12-2.68-52.7-3.82-13.34-.87-26.71-1.33-40.07-.33-2.38.18-3.48-.52-3.56-3.02-.36-11.68-.79-23.35-1.24-35.02-.76-19.58-1.61-39.17-2.33-58.75-.87-23.54-1.56-47.1-2.5-70.64-.52-12.96-.79-25.93-1.23-38.89-.42-12.48-.32-24.95-.44-37.43-.38-15.85.06-31.7.71-47.53.9-21.75,2.29-43.49,3.33-65.23.62-12.85.84-25.73,1.48-38.58.59-11.78.33-23.56.39-35.35.02-4.2.07-4.24,4.37-4.31,13.47-.22,26.94-.32,40.4-.71,20.09-.59,40.19-.83,60.29-1.23,26.04-.52,52.08-.73,78.12-1.19,48.54-.86,97.08-.4,145.61-.39,16.93,0,33.87.38,50.8.71,15.05.29,30.09.75,45.13,1.15,1.48.04,2.98.45,4.43.3,3.36-.35,3.95,1.39,3.91,4.25-.27,19.9-.19,39.82-.73,59.71-.43,15.75-.03,31.5-.5,47.24-.58,19.6-.11,39.22-.67,58.82-.43,15.05-.04,30.11-.55,45.15-.67,19.81-.45,39.61-.35,59.42.08,14.96,1.56,29.84,3.29,44.68,2.4,20.59,3.46,41.21,2.12,61.94Z"/>
  <path class="cls-1" d="m119.87,135.78c-7.34.56-13.43-2.47-19.23-6.24-1.77-1.15-3.36-2.73-2.55-5.17.86-2.57,2.91-3.59,5.52-3.72,2.32-.12,4.29.81,6.05,2.12,6.25,4.65,13.08,4.04,19.87,1.94,6.8-2.1,9.26-7.64,9.73-14.21.34-4.79-.64-9.45-2.01-14.03-1.3-4.33-4.52-5.97-8.72-6.35-4.25-.38-8.26.66-12.25,1.87-2.94.89-5.85,1.87-9,1.64-4.23-.31-6.25-3.12-4.82-7.13,1.55-4.36,1.65-8.93,2.42-13.41.73-4.28,2.19-8.19,5.29-11.39,3.16-3.26,7.02-4.64,11.34-3.67,7.05,1.59,14.08,1.97,21.22.97,1.41-.2,2.78.12,4.05.71,1.73.79,2.9,2.02,2.9,4.09,0,2.11-1.24,3.3-3.01,3.98-3.39,1.32-7.03,1.04-10.56,1.35-4.05.35-8.08.08-12.1-.82-4.59-1.03-5.51-.39-6.69,4.19-.49,1.91-.68,3.89-.97,5.85-.33,2.24.17,3.28,2.87,2.72,4.17-.87,8.41-.84,12.69-.29,7.48.97,13.09,4.37,16.14,11.39,3.82,8.76,4.66,17.82,1.57,26.93-3.36,9.93-11.16,14.47-21.01,16.02-2.92.46-5.87.96-8.75.65Z"/>
  <path class="cls-1" d="m82.23,122.54c-.09-12.57-1.4-25.08-1.68-37.63-.05-2.36.3-4.73.45-7.1.11-1.86-.51-2.44-2.2-1.27-1.14.78-2.32,1.52-3.54,2.16-1.74.91-3.65.98-5.5.51-1.94-.49-3.36-1.72-3.82-3.76-.43-1.91.58-3.29,2.04-4.27,5.66-3.82,10.18-8.73,14.1-14.27,1.85-2.62,4.9-3.57,7.92-2.55,2.86.96,3.68,3.31,3.85,6.08.37,5.85-.12,11.69-.82,17.46-.85,6.96.05,13.82.41,20.72.54,10.17,1.14,20.34.89,30.53-.09,3.77-2.73,6.12-6.32,6-3.63-.13-5.7-2.29-5.76-6.09-.03-2.18,0-4.35,0-6.53Z"/>
  <path class="cls-1" d="m99.02,445.61c-3.73.27-7.75-.64-11.6-2.41-1.72-.79-3.31-1.78-4.63-3.17-1.54-1.61-2.27-3.35-.51-5.22,1.66-1.76,3.82-2.08,5.59-.52,4.16,3.66,9.04,4.15,14.2,3.88,3.25-.17,5.36-1.64,6.25-4.88,1.28-4.65,1.86-9.35.94-14.1-.73-3.8-2.22-4.8-6.08-4.34-1.98.23-3.92.47-5.87-.21-3.21-1.12-3.9-3.81-1.39-6.15,1.95-1.82,4.28-3.2,6.09-5.2,1.96-2.15,3.61-4.47,4.37-7.32.57-2.12-.15-3.44-2.46-3.15-5.87.75-11.53,1.98-15.49,7.05-1.98,2.53-4.84,2.94-6.73,1.27-1.72-1.52-1.72-4.06.44-6.34,6.62-6.99,14.98-10.02,24.41-9.25,6.94.56,9.6,5.34,7.76,12.45-.68,2.62-1.94,4.99-3.52,7.16-1.04,1.44-1.37,2.47.6,3.48,3.79,1.94,5.4,5.52,6.01,9.42.67,4.31.65,8.73-.11,13.03-1.91,10.82-6.53,14.5-18.27,14.5Z"/>
  <path class="cls-1" d="m374.41,332.74c-1.3.78-1.68,1.96-2.35,2.92-2.88,4.15-6.61,7.07-11.68,8.02-4.74.89-8.44-1.2-9.99-5.77-3.25-9.6-2.72-19.51-2.2-29.4.08-1.46.68-2.91,1.73-4.04,1.44-1.56,3.17-1.99,5.09-.96,1.81.97,2.34,2.47,1.88,4.5-1.94,8.47-1.1,16.91.63,25.28.62,3,1.89,3.35,4.35,1.56,2.68-1.95,4.05-4.8,5.16-7.81,2.26-6.08,2.87-12.52,4.11-18.82.55-2.81,1.12-5.63,4.65-6.01,2.56-.28,4.71,1.97,5.27,6.15.78,5.87,1.1,11.81,1.62,17.71.33,3.74.61,7.49,1,11.23.3,2.95-.94,5.04-3.33,5.36-2.82.38-4.67-1.31-4.96-4.56-.16-1.75.09-3.57-.98-5.38Z"/>
  <path class="cls-1" d="m118.14,318.49c1.84-.49,2.07-1.68,2.63-2.56,1.57-2.48,3.52-4.54,6.13-5.92,6.56-3.47,12.95-.34,14.38,6.92,1.39,7.03.11,14.03-.11,21.03-.07,2.36-1.93,3.65-4.36,3.52-2.65-.15-3.95-1.85-3.9-4.34.09-4.75.75-9.48.54-14.24-.06-1.38-.08-2.78-.29-4.14-.13-.83-.21-1.87-1.25-2.19-1.12-.35-1.89.4-2.59,1.09-1.5,1.49-2.58,3.28-3.33,5.23-1.81,4.71-3.53,9.46-5.34,14.18-.78,2.02-1.46,4.13-3.23,5.6-2.54,2.12-5.63,1.39-6.58-1.77-.62-2.07-1.02-4.27-1.08-6.42-.28-9.7-.41-19.41,1.64-28.99.54-2.53,1.29-5,2.43-7.31,1.29-2.61,3.66-3.67,5.79-2.76,2.36,1.01,2.9,2.9,1.63,5.95-2.24,5.39-2.78,11.04-3.1,17.11Z"/>
  <path class="cls-1" d="m256.18,318.51c1.73-.57,1.99-1.74,2.55-2.62,1.57-2.48,3.53-4.53,6.15-5.9,6.46-3.38,12.79-.38,14.28,6.71,1.5,7.11.18,14.22-.07,21.32-.08,2.36-1.97,3.62-4.4,3.46-2.65-.18-3.92-1.91-3.85-4.39.15-4.94.75-9.88.52-14.83-.06-1.38-.16-2.77-.44-4.12-.4-1.93-1.59-2.14-3.03-1.02-1.68,1.31-2.83,3.06-3.6,5.02-1.85,4.7-3.57,9.44-5.4,14.15-.82,2.11-1.44,4.35-3.13,6.01-2.71,2.67-6.07,1.91-7.09-1.73-.56-1.99-.92-4.08-.98-6.14-.26-9.7-.4-19.41,1.66-28.99.54-2.53,1.29-5,2.45-7.31,1.3-2.6,3.68-3.63,5.81-2.69,2.34,1.03,2.82,2.88,1.57,5.98-2.18,5.39-2.91,11.02-2.98,17.08Z"/>
  <path class="cls-1" d="m269.62,438.84c.57-3.22.55-7.57.52-11.93-.03-3.72-.13-3.76-3.67-3.03-2.61.54-5.25.99-7.89,1.33-1.96.25-3.94.16-5.88-.43-4.05-1.22-5.43-3.83-3.84-7.68.79-1.91,1.75-3.78,2.84-5.54,4.88-7.92,9.84-15.78,14.75-23.68.89-1.44,2.03-2.46,3.78-2.47,3.16-.02,4.97,2.79,3.55,5.78-2.67,5.66-6.41,10.68-9.79,15.92-1.66,2.58-3.26,5.2-4.84,7.82-.39.65-1.05,1.4-.49,2.17.54.75,1.5.44,2.22.29,2.42-.5,4.81-1.13,7.22-1.67,1.52-.34,2.05-1.27,2.09-2.77.04-1.47.25-2.96.5-4.41.39-2.22,1.86-3.13,4.04-3.07,2.18.06,3.83,1.07,3.83,3.29,0,3,1.19,3.44,3.85,2.87,2.31-.5,4.51.28,5.06,2.91.57,2.76-1.36,3.8-3.66,4.47-5.15,1.51-5.07,1.55-5.18,6.89-.1,4.45-.38,8.89-.6,13.34-.03.59-.18,1.17-.29,1.75-.49,2.58-1.89,4.2-4.67,3.89-2.86-.32-3.67-2.32-3.44-6.02Z"/>
  <path class="cls-1" d="m213.29,438.45c.38-4.25,1.56-7.52,2.61-10.82,3.39-10.67,8.81-20.31,15.06-29.52.44-.66.89-1.31,1.28-2,.43-.74,1.36-1.51.76-2.38-.56-.81-1.65-.41-2.52-.3-5.89.75-11.74,1.77-17.71,1.64-.69-.02-1.39.02-2.08-.04-2.16-.19-3.99-1-4.07-3.45-.08-2.46,1.74-3.49,3.84-3.73,2.84-.33,5.74-.23,8.58-.57,7.15-.85,14.43-.88,21.29-3.58,1.52-.6,3.13-.15,4.35,1.16,1.32,1.42,1.36,2.99.64,4.68-2.27,5.32-5.55,10.05-8.73,14.82-6.97,10.47-12.58,21.52-14.97,34.01-.51,2.64-2,4.05-4.79,3.66-2.47-.35-3.51-1.95-3.55-3.56Z"/>
  <path class="cls-1" d="m197.08,306.26c2.6-.18,5.16.06,7.55,1.19,1.87.89,3.2,2.33,2.49,4.47-.7,2.12-2.51,3.05-4.73,2.66-2.23-.39-4.39-1.19-6.73-1.01-1.96.15-3.95.5-4.69,2.51-.83,2.24,1.1,3.44,2.55,4.54,1.65,1.25,3.53,2.2,5.28,3.32,1.25.8,2.53,1.57,3.67,2.5,3.58,2.94,6.07,6.54,4.68,11.36-1.36,4.72-5.54,6.34-9.81,7.1-4.45.8-8.89.14-13.1-1.63-2.05-.86-3.73-2.09-3.05-4.69.57-2.17,2.92-3.17,5.64-2.34,2.56.79,5.07,1.74,7.82,1.48,1.7-.16,3.68-.34,4.28-2.1.59-1.71-.96-2.9-2.25-3.82-1.61-1.15-3.33-2.13-4.99-3.2-1.49-.97-3.08-1.84-4.42-2.99-3.35-2.89-6.01-6.21-4.64-11.05,1.33-4.67,5.57-7.82,10.89-8.28,1.18-.1,2.38-.01,3.56-.01Z"/>
  <path class="cls-1" d="m401.92,306.21c2.46-.13,4.82.07,7.08.91,2.6.97,4.03,3.02,3.21,4.88-1.01,2.3-2.92,3.15-5.37,2.47-2.3-.64-4.61-1.16-7.02-.84-1.63.22-3.16.74-3.78,2.44-.64,1.72.63,2.8,1.67,3.82,1.8,1.74,4.08,2.78,6.22,4,2.8,1.59,5.25,3.56,7.05,6.23,2.94,4.36,1.89,9.52-2.47,12.43-5.08,3.39-15.5,3.42-20.46.07-1.43-.97-2.35-2.23-1.76-4.01.59-1.78,1.92-2.67,3.84-2.68,1.23,0,2.31.47,3.44.84,2.86.94,5.75,1.5,8.71.38,2.09-.78,2.53-1.99,1.09-3.81-1.46-1.84-3.42-2.97-5.42-4.06-2.62-1.42-5.13-2.95-7.2-5.16-5.46-5.81-3.93-13.46,3.4-16.68,2.51-1.1,5.13-1.41,7.77-1.24Z"/>
  <path class="cls-1" d="m329.18,316.71c2.27-2.11,3.68-4.19,5.74-5.56,1.65-1.1,3.24-2.36,5.28-2.56,2.1-.2,4.06.25,4.79,2.56.67,2.11-.63,3.41-2.32,4.27-4.57,2.3-7.07,6.19-8.59,10.85-1.37,4.23-2.65,8.49-4.03,12.72-.46,1.4-1.02,2.79-1.71,4.09-.97,1.82-2.36,3.31-4.65,3.07-2.43-.26-3.42-2.07-4.01-4.2-1.02-3.68-.94-7.46-.72-11.2.29-5.02.63-10.06,1.58-15.01.66-3.46,2.43-5.42,4.7-5.11,3.05.41,3.95,2.6,3.94,6.09Z"/>
  <path class="cls-1" d="m164.55,436.42c2.24.04,4.11,1.81,4.02,3.8-.11,2.39-2.3,4.66-4.51,4.65-2.16,0-3.91-1.78-3.89-3.95.02-2.63,1.88-4.55,4.38-4.5Z"/>
  <path class="cls-1" d="m130.72,170.54c-3.16-5.43-7.52-9.64-12.94-12.81-5.3-3.11-10.98-3.77-16.92-2.79-7.04,1.15-12.74,4.79-17.53,9.89-1.61,1.71-2.83,2.58-4.71.41-.9-1.04-2.28-1.52-3.72-1.68-5.24-.59-8.45,2.36-8.66,8.06-.49,12.66-.89,25.32-1.44,37.98-.57,12.96-1.11,25.91-.88,38.88.02.97.22,1.97.52,2.91,1.15,3.61,4.43,5.55,8.39,5.04,3.86-.49,6.16-3.02,6.23-7.02.07-3.66.01-7.33.01-10.99-.04,0-.08,0-.12,0,0-3.96.06-7.93-.03-11.88-.05-2.17.71-2.94,2.97-2.81,4.74.28,9.51.46,14.15-.96,16.31-5,27.79-15.65,35.01-30.82,3.31-6.95,3.78-14.34-.34-21.41Zm-13.43,16.37c-5.27,11.74-14.15,19.61-26.65,23.16-.57.16-1.16.29-1.74.36-.79.09-1.58.09-2.37.13,0-.02,0-.03,0-.05-.4,0-.79.02-1.19,0-4.37-.21-4.74-.6-4.03-4.94,1.64-10.05,4.3-19.76,10.17-28.28,2.79-4.06,6.19-7.47,11.12-8.95,1.66-.5,3.32-.61,4.98-.2,8.2,2.02,13.15,11.15,9.72,18.77Z"/>
  <path class="cls-1" d="m236.39,307.94c-4.55-1.45-9.8,1.02-13.61,6.31-.78,1.08-1.18,2.47-2.57,3.41-.63-1.66-.22-3.12-.16-4.56.14-3.11-1.14-4.89-3.69-5.04-2.49-.15-4.25,1.51-4.51,4.43-.3,3.35-.42,6.72-.72,10.07-1.1,12.08-.78,24.13.71,36.16.41,3.3,1.99,4.91,4.51,4.85,2.45-.06,3.78-1.81,4.07-5.25.32-3.85.68-7.69,1-11.53.15-1.78,1.09-2.26,2.82-2.08,8.81.88,14.66-2.7,17.91-10.88,1.55-3.9,2.39-7.98,2.55-12.15.26-6.54-3.22-12.11-8.32-13.74Zm-.04,14.07c0,4.16-1.18,8.01-3.15,11.61-1.58,2.88-4.88,4.36-7.74,3.74-1.63-.36-2.51-1.16-2.02-2.9,1.58-5.62,3.2-11.24,6.48-16.16.94-1.41,1.88-3.51,4.03-2.78,2.01.68,2.26,2.8,2.39,4.72.04.59,0,1.18,0,1.78Z"/>
  <path class="cls-1" d="m104.42,295.26c-6.16-9.61-17.68-10.92-25.96-2.92-1.26,1.22-2.08,1.9-3.94.7-3.23-2.1-6.32-.23-6.5,3.74-.5,11.37-.94,22.75-1.4,34.13.05,0,.09,0,.14,0,0,2.97-.02,5.95,0,8.92.03,3.91,1.52,5.87,4.36,5.77,2.8-.1,4.24-2.1,4.17-6-.06-3.26-.24-6.52-.32-9.79-.05-2.14.81-3.21,3.2-3.14,12.4.4,20.37-6.55,26.2-16.47,2.79-4.76,3.23-9.98.04-14.95Zm-6.88,10.38c-2.62,6.89-11.34,13.62-17.72,13.69-3.22.03-3.75-.46-3.24-3.58.78-4.81,2.08-9.47,4.49-13.76,1.17-2.08,2.54-4.02,4.49-5.46,3.41-2.53,6.01-2.59,9.2-.2,3.52,2.62,4.31,5.29,2.78,9.32Z"/>
  <path class="cls-1" d="m155.1,398.24c-3.71-8.37-16.15-15.68-26.1-4.68-11.59,12.8-10.52,31.56-4.27,42.71,3.11,5.54,10.13,8.42,16.34,7.09,6.43-1.38,10.61-5.45,13.38-11.17,2.75-5.68,3.24-11.77,3.07-18.13.18-5.3-.15-10.68-2.43-15.81Zm-6.76,27.07c-.47,1.93-1.16,3.79-2.2,5.48-1.9,3.09-4.43,5.5-8.3,5.33-4.01-.18-5.97-3.03-7.25-6.48-3.5-9.42-3.26-18.57,1.92-27.37.65-1.1,1.39-2.17,2.23-3.13,4.38-5.07,9.54-4.37,12.64,1.68,1.52,2.97,2.14,6.9,2.1,13.97.15,3.14-.24,6.86-1.14,10.53Z"/>
  <path class="cls-1" d="m198.62,392.51c-6.69-8.3-20-7.04-25.01,2.39-3.78,7.11-2.3,14.06,1.36,20.66,2.79,5.03,7.35,7.58,13.09,8.04,1.02.08,2.42-.41,2.89.89.41,1.13-.64,1.99-1.26,2.86-3.68,5.12-8.01,9.27-14.64,10.25-2.13.32-3.77,1.65-3.47,4.05.29,2.34,2.09,3.22,4.29,3.26.98.02,1.97-.11,2.93-.3,3.15-.64,6.03-1.94,8.63-3.81,11.04-7.95,15.81-19.11,16.54-32.3.45-6.11-1.62-11.36-5.35-15.99Zm-2.83,17.17c-.62,2.1.57,5.1-2.53,6.01-3.58,1.06-7.2,1.04-9.82-2.08-3.24-3.85-4.17-8.51-3.23-13.36.58-3.01,2.78-4.99,5.83-5.68,3.07-.7,5.12,1,6.68,3.34,2.07,3.09,3.4,6.46,3.09,10.44,0,.35.11.87-.02,1.33Z"/>
  <path class="cls-1" d="m174.44,310.59c-.48-.63-1.07-1.22-1.35-1.93-1.77-4.35-2.66-4.98-7.36-4.92-11.22.13-21.67,11.48-21.77,23.66-.09,10.82,7.91,18.03,17.9,16.12,14.51-2.79,21.54-21.17,12.59-32.93Zm-4.22,12.33c-.34,3.94-1.71,7.55-4.59,10.37-2.55,2.49-5.67,4.03-9.16,2.4-3.39-1.59-4.48-4.81-4.48-8.77.64-5.99,3.73-10.79,9.08-14.2,1.01-.64,1.94-.64,3.05-.09,4.17,2.06,6.49,5.74,6.09,10.29Z"/>
  <path class="cls-1" d="m312.25,310.45c-.45-.52-.94-1.06-1.2-1.68-1.99-4.62-2.83-5.18-7.88-5-11.06.37-21.23,11.76-21.29,23.83-.05,10.63,7.93,17.57,17.81,16.01,14.51-2.3,21.83-22.48,12.57-33.16Zm-4.09,12.43c-.33,3.95-1.69,7.56-4.56,10.38-2.54,2.5-5.65,4.06-9.14,2.45-3.4-1.56-4.53-4.76-4.51-8.9.61-5.84,3.69-10.64,9.02-14.06,1-.64,1.93-.69,3.05-.14,4.16,2.02,6.51,5.73,6.14,10.27Z"/>
</svg>